<svg width="16" height="16" viewBox="0 0 16 16" fill="none" xmlns="http://www.w3.org/2000/svg">
<path d="M4.00008 6.66663C4.73646 6.66663 5.33341 7.26358 5.33341 7.99996C5.33341 8.73634 4.73646 9.33329 4.00008 9.33329C3.2637 9.33329 2.66675 8.73634 2.66675 7.99996C2.66675 7.26358 3.2637 6.66663 4.00008 6.66663Z" fill="#C2C6CE"/>
<path d="M8.00008 6.66663C8.73646 6.66663 9.33341 7.26358 9.33341 7.99996C9.33341 8.73634 8.73646 9.33329 8.00008 9.33329C7.2637 9.33329 6.66675 8.73634 6.66675 7.99996C6.66675 7.26358 7.2637 6.66663 8.00008 6.66663Z" fill="#C2C6CE"/>
<path d="M13.3334 7.99996C13.3334 7.26358 12.7365 6.66663 12.0001 6.66663C11.2637 6.66663 10.6667 7.26358 10.6667 7.99996C10.6667 8.73634 11.2637 9.33329 12.0001 9.33329C12.7365 9.33329 13.3334 8.73634 13.3334 7.99996Z" fill="#C2C6CE"/>
</svg>
