<svg width="20" height="20" viewBox="0 0 20 20" fill="none" xmlns="http://www.w3.org/2000/svg">
<path d="M11.6668 4.99998C11.6668 5.92045 10.9206 6.66665 10.0002 6.66665C9.07969 6.66665 8.3335 5.92045 8.3335 4.99998C8.3335 4.07951 9.07969 3.33331 10.0002 3.33331C10.9206 3.33331 11.6668 4.07951 11.6668 4.99998Z" fill="#858D9D"/>
<path d="M11.6668 4.99998C11.6668 5.92045 10.9206 6.66665 10.0002 6.66665C9.07969 6.66665 8.3335 5.92045 8.3335 4.99998C8.3335 4.07951 9.07969 3.33331 10.0002 3.33331C10.9206 3.33331 11.6668 4.07951 11.6668 4.99998Z" fill="black" fill-opacity="0.2"/>
<path d="M11.6668 4.99998C11.6668 5.92045 10.9206 6.66665 10.0002 6.66665C9.07969 6.66665 8.3335 5.92045 8.3335 4.99998C8.3335 4.07951 9.07969 3.33331 10.0002 3.33331C10.9206 3.33331 11.6668 4.07951 11.6668 4.99998Z" fill="black" fill-opacity="0.2"/>
<path d="M11.6668 4.99998C11.6668 5.92045 10.9206 6.66665 10.0002 6.66665C9.07969 6.66665 8.3335 5.92045 8.3335 4.99998C8.3335 4.07951 9.07969 3.33331 10.0002 3.33331C10.9206 3.33331 11.6668 4.07951 11.6668 4.99998Z" fill="black" fill-opacity="0.2"/>
<path d="M11.6668 9.99998C11.6668 10.9205 10.9206 11.6666 10.0002 11.6666C9.07969 11.6666 8.3335 10.9205 8.3335 9.99998C8.3335 9.0795 9.07969 8.33331 10.0002 8.33331C10.9206 8.33331 11.6668 9.0795 11.6668 9.99998Z" fill="#858D9D"/>
<path d="M11.6668 9.99998C11.6668 10.9205 10.9206 11.6666 10.0002 11.6666C9.07969 11.6666 8.3335 10.9205 8.3335 9.99998C8.3335 9.0795 9.07969 8.33331 10.0002 8.33331C10.9206 8.33331 11.6668 9.0795 11.6668 9.99998Z" fill="black" fill-opacity="0.2"/>
<path d="M11.6668 9.99998C11.6668 10.9205 10.9206 11.6666 10.0002 11.6666C9.07969 11.6666 8.3335 10.9205 8.3335 9.99998C8.3335 9.0795 9.07969 8.33331 10.0002 8.33331C10.9206 8.33331 11.6668 9.0795 11.6668 9.99998Z" fill="black" fill-opacity="0.2"/>
<path d="M11.6668 9.99998C11.6668 10.9205 10.9206 11.6666 10.0002 11.6666C9.07969 11.6666 8.3335 10.9205 8.3335 9.99998C8.3335 9.0795 9.07969 8.33331 10.0002 8.33331C10.9206 8.33331 11.6668 9.0795 11.6668 9.99998Z" fill="black" fill-opacity="0.2"/>
<path d="M10.0002 16.6666C10.9206 16.6666 11.6668 15.9205 11.6668 15C11.6668 14.0795 10.9206 13.3333 10.0002 13.3333C9.07969 13.3333 8.3335 14.0795 8.3335 15C8.3335 15.9205 9.07969 16.6666 10.0002 16.6666Z" fill="#858D9D"/>
<path d="M10.0002 16.6666C10.9206 16.6666 11.6668 15.9205 11.6668 15C11.6668 14.0795 10.9206 13.3333 10.0002 13.3333C9.07969 13.3333 8.3335 14.0795 8.3335 15C8.3335 15.9205 9.07969 16.6666 10.0002 16.6666Z" fill="black" fill-opacity="0.2"/>
<path d="M10.0002 16.6666C10.9206 16.6666 11.6668 15.9205 11.6668 15C11.6668 14.0795 10.9206 13.3333 10.0002 13.3333C9.07969 13.3333 8.3335 14.0795 8.3335 15C8.3335 15.9205 9.07969 16.6666 10.0002 16.6666Z" fill="black" fill-opacity="0.2"/>
<path d="M10.0002 16.6666C10.9206 16.6666 11.6668 15.9205 11.6668 15C11.6668 14.0795 10.9206 13.3333 10.0002 13.3333C9.07969 13.3333 8.3335 14.0795 8.3335 15C8.3335 15.9205 9.07969 16.6666 10.0002 16.6666Z" fill="black" fill-opacity="0.2"/>
</svg>
