<svg width="20" height="20" viewBox="0 0 20 20" fill="none" xmlns="http://www.w3.org/2000/svg">
<path fill-rule="evenodd" clip-rule="evenodd" d="M10.8336 2.50002C10.8336 2.03978 10.4605 1.66669 10.0002 1.66669C9.54001 1.66669 9.16691 2.03978 9.16691 2.50002V2.97576C6.33999 3.3801 4.16688 5.81128 4.16688 8.75002V12.9167L3.56889 13.9632C3.0927 14.7965 3.69441 15.8334 4.65419 15.8334H6.77192C7.14196 17.271 8.44704 18.3334 10.0002 18.3334C11.5534 18.3334 12.8585 17.271 13.2286 15.8334H15.3462C16.306 15.8334 16.9077 14.7965 16.4315 13.9632L15.8335 12.9167V8.75002C15.8335 5.8113 13.6605 3.38014 10.8336 2.97577V2.50002ZM5.83355 13.3593L5.37218 14.1667H14.6282L14.1669 13.3593V8.75002C14.1669 6.44883 12.3014 4.58335 10.0002 4.58335C7.69903 4.58335 5.83355 6.44883 5.83355 8.75002V13.3593ZM10.0002 16.6667C9.38334 16.6667 8.84472 16.3315 8.55655 15.8334H11.4439C11.1558 16.3315 10.6171 16.6667 10.0002 16.6667Z" fill="#858D9D"/>
<path fill-rule="evenodd" clip-rule="evenodd" d="M10.8336 2.50002C10.8336 2.03978 10.4605 1.66669 10.0002 1.66669C9.54001 1.66669 9.16691 2.03978 9.16691 2.50002V2.97576C6.33999 3.3801 4.16688 5.81128 4.16688 8.75002V12.9167L3.56889 13.9632C3.0927 14.7965 3.69441 15.8334 4.65419 15.8334H6.77192C7.14196 17.271 8.44704 18.3334 10.0002 18.3334C11.5534 18.3334 12.8585 17.271 13.2286 15.8334H15.3462C16.306 15.8334 16.9077 14.7965 16.4315 13.9632L15.8335 12.9167V8.75002C15.8335 5.8113 13.6605 3.38014 10.8336 2.97577V2.50002ZM5.83355 13.3593L5.37218 14.1667H14.6282L14.1669 13.3593V8.75002C14.1669 6.44883 12.3014 4.58335 10.0002 4.58335C7.69903 4.58335 5.83355 6.44883 5.83355 8.75002V13.3593ZM10.0002 16.6667C9.38334 16.6667 8.84472 16.3315 8.55655 15.8334H11.4439C11.1558 16.3315 10.6171 16.6667 10.0002 16.6667Z" fill="black" fill-opacity="0.2"/>
<path fill-rule="evenodd" clip-rule="evenodd" d="M10.8336 2.50002C10.8336 2.03978 10.4605 1.66669 10.0002 1.66669C9.54001 1.66669 9.16691 2.03978 9.16691 2.50002V2.97576C6.33999 3.3801 4.16688 5.81128 4.16688 8.75002V12.9167L3.56889 13.9632C3.0927 14.7965 3.69441 15.8334 4.65419 15.8334H6.77192C7.14196 17.271 8.44704 18.3334 10.0002 18.3334C11.5534 18.3334 12.8585 17.271 13.2286 15.8334H15.3462C16.306 15.8334 16.9077 14.7965 16.4315 13.9632L15.8335 12.9167V8.75002C15.8335 5.8113 13.6605 3.38014 10.8336 2.97577V2.50002ZM5.83355 13.3593L5.37218 14.1667H14.6282L14.1669 13.3593V8.75002C14.1669 6.44883 12.3014 4.58335 10.0002 4.58335C7.69903 4.58335 5.83355 6.44883 5.83355 8.75002V13.3593ZM10.0002 16.6667C9.38334 16.6667 8.84472 16.3315 8.55655 15.8334H11.4439C11.1558 16.3315 10.6171 16.6667 10.0002 16.6667Z" fill="black" fill-opacity="0.2"/>
<path fill-rule="evenodd" clip-rule="evenodd" d="M10.8336 2.50002C10.8336 2.03978 10.4605 1.66669 10.0002 1.66669C9.54001 1.66669 9.16691 2.03978 9.16691 2.50002V2.97576C6.33999 3.3801 4.16688 5.81128 4.16688 8.75002V12.9167L3.56889 13.9632C3.0927 14.7965 3.69441 15.8334 4.65419 15.8334H6.77192C7.14196 17.271 8.44704 18.3334 10.0002 18.3334C11.5534 18.3334 12.8585 17.271 13.2286 15.8334H15.3462C16.306 15.8334 16.9077 14.7965 16.4315 13.9632L15.8335 12.9167V8.75002C15.8335 5.8113 13.6605 3.38014 10.8336 2.97577V2.50002ZM5.83355 13.3593L5.37218 14.1667H14.6282L14.1669 13.3593V8.75002C14.1669 6.44883 12.3014 4.58335 10.0002 4.58335C7.69903 4.58335 5.83355 6.44883 5.83355 8.75002V13.3593ZM10.0002 16.6667C9.38334 16.6667 8.84472 16.3315 8.55655 15.8334H11.4439C11.1558 16.3315 10.6171 16.6667 10.0002 16.6667Z" fill="black" fill-opacity="0.2"/>
</svg>
