<svg width="24" height="24" viewBox="0 0 24 24" fill="none" xmlns="http://www.w3.org/2000/svg">
<path fill-rule="evenodd" clip-rule="evenodd" d="M13.4217 3.46421C14.9838 1.90211 17.5164 1.90211 19.0785 3.46421C20.6406 5.0263 20.6406 7.55896 19.0785 9.12106L10.2397 17.9599C9.26338 18.9362 7.68047 18.9362 6.70416 17.9599C5.72785 16.9836 5.72785 15.4007 6.70416 14.4244L15.543 5.58553C15.9335 5.195 16.5667 5.195 16.9572 5.58553C17.3477 5.97605 17.3477 6.60922 16.9572 6.99974L8.11837 15.8386C7.92311 16.0338 7.92311 16.3504 8.11837 16.5457C8.31363 16.7409 8.63022 16.7409 8.82548 16.5457L17.6643 7.70685C18.4454 6.9258 18.4454 5.65947 17.6643 4.87842C16.8833 4.09737 15.6169 4.09737 14.8359 4.87842L5.99705 13.7173C4.63021 15.0841 4.63022 17.3002 5.99705 18.667C7.36388 20.0338 9.57996 20.0338 10.9468 18.667L18.3714 11.2424C18.7619 10.8519 19.3951 10.8519 19.7856 11.2424C20.1762 11.6329 20.1762 12.2661 19.7856 12.6566L12.361 20.0812C10.2131 22.2291 6.73072 22.2291 4.58284 20.0812C2.43495 17.9333 2.43495 14.4509 4.58284 12.303L13.4217 3.46421Z" fill="#667085"/>
</svg>
