<svg width="20" height="20" viewBox="0 0 20 20" fill="none" xmlns="http://www.w3.org/2000/svg">
<path fill-rule="evenodd" clip-rule="evenodd" d="M12.3204 13.4991C9.70506 15.5345 5.92199 15.3503 3.51805 12.9463C0.914556 10.3428 0.914556 6.12173 3.51805 3.51823C6.12155 0.914739 10.3426 0.914739 12.9461 3.51823C15.3501 5.92217 15.5343 9.70523 13.4989 12.3206L17.071 15.8926C17.3964 16.2181 17.3964 16.7457 17.071 17.0711C16.7455 17.3966 16.2179 17.3966 15.8924 17.0711L12.3204 13.4991ZM4.69656 11.7678C6.64918 13.7204 9.81501 13.7204 11.7676 11.7678C13.7203 9.81519 13.7203 6.64937 11.7676 4.69675C9.81501 2.74412 6.64918 2.74412 4.69656 4.69675C2.74394 6.64937 2.74394 9.81519 4.69656 11.7678Z" fill="#858D9D"/>
<path fill-rule="evenodd" clip-rule="evenodd" d="M12.3204 13.4991C9.70506 15.5345 5.92199 15.3503 3.51805 12.9463C0.914556 10.3428 0.914556 6.12173 3.51805 3.51823C6.12155 0.914739 10.3426 0.914739 12.9461 3.51823C15.3501 5.92217 15.5343 9.70523 13.4989 12.3206L17.071 15.8926C17.3964 16.2181 17.3964 16.7457 17.071 17.0711C16.7455 17.3966 16.2179 17.3966 15.8924 17.0711L12.3204 13.4991ZM4.69656 11.7678C6.64918 13.7204 9.81501 13.7204 11.7676 11.7678C13.7203 9.81519 13.7203 6.64937 11.7676 4.69675C9.81501 2.74412 6.64918 2.74412 4.69656 4.69675C2.74394 6.64937 2.74394 9.81519 4.69656 11.7678Z" fill="black" fill-opacity="0.2"/>
<path fill-rule="evenodd" clip-rule="evenodd" d="M12.3204 13.4991C9.70506 15.5345 5.92199 15.3503 3.51805 12.9463C0.914556 10.3428 0.914556 6.12173 3.51805 3.51823C6.12155 0.914739 10.3426 0.914739 12.9461 3.51823C15.3501 5.92217 15.5343 9.70523 13.4989 12.3206L17.071 15.8926C17.3964 16.2181 17.3964 16.7457 17.071 17.0711C16.7455 17.3966 16.2179 17.3966 15.8924 17.0711L12.3204 13.4991ZM4.69656 11.7678C6.64918 13.7204 9.81501 13.7204 11.7676 11.7678C13.7203 9.81519 13.7203 6.64937 11.7676 4.69675C9.81501 2.74412 6.64918 2.74412 4.69656 4.69675C2.74394 6.64937 2.74394 9.81519 4.69656 11.7678Z" fill="black" fill-opacity="0.2"/>
<path fill-rule="evenodd" clip-rule="evenodd" d="M12.3204 13.4991C9.70506 15.5345 5.92199 15.3503 3.51805 12.9463C0.914556 10.3428 0.914556 6.12173 3.51805 3.51823C6.12155 0.914739 10.3426 0.914739 12.9461 3.51823C15.3501 5.92217 15.5343 9.70523 13.4989 12.3206L17.071 15.8926C17.3964 16.2181 17.3964 16.7457 17.071 17.0711C16.7455 17.3966 16.2179 17.3966 15.8924 17.0711L12.3204 13.4991ZM4.69656 11.7678C6.64918 13.7204 9.81501 13.7204 11.7676 11.7678C13.7203 9.81519 13.7203 6.64937 11.7676 4.69675C9.81501 2.74412 6.64918 2.74412 4.69656 4.69675C2.74394 6.64937 2.74394 9.81519 4.69656 11.7678Z" fill="black" fill-opacity="0.2"/>
</svg>
